<svg width="41" height="63" viewBox="0 0 41 63" fill="none" xmlns="http://www.w3.org/2000/svg">
<path d="M3.80127 6.03069L7.45859 56.0207H33.4736L37.4468 5.99438L3.80127 6.03069Z" fill="#C6E7FF"/>
<path d="M33.2056 54.9614L7.62433 55.2463L5.77661 27.4543H35.2638L33.2056 54.9614Z" fill="#55ACEE"/>
<path d="M31.2197 62.0291H9.78034C6.67298 62.0291 4.4913 59.9364 4.09017 56.564L0.50546 6.25821C0.421968 5.08388 1.30589 4.06382 2.48204 3.98033C3.67816 3.89865 4.67643 4.78258 4.75993 5.9551L8.33375 56.1593C8.52796 57.7638 9.37377 57.7638 9.78034 57.7638H31.2197C32.1562 57.7638 32.5047 57.7638 32.6717 56.0994L36.2401 5.9551C36.3236 4.78258 37.3291 3.90228 38.518 3.98033C39.6923 4.06382 40.578 5.08388 40.4946 6.25821L36.9207 56.4606C36.4633 61.0726 33.5683 62.0291 31.2197 62.0291Z" fill="#2B5677"/>
<path d="M20.4993 58.0815H15.7312C5.69036 58.0815 4.5378 53.2099 4.00599 46.3309C3.41066 38.6514 0.824219 6.22927 0.824219 6.22927L4.44161 5.94067C4.44161 5.94067 7.03167 38.3719 7.6252 46.0514C8.10618 52.2933 8.63436 54.4514 15.7312 54.4514H20.4993C21.5012 54.4514 22.3144 55.2627 22.3144 56.2665C22.3144 57.2702 21.5012 58.0815 20.4993 58.0815Z" fill="#2B5677"/>
<path d="M25.2673 58.0815H20.4991C19.4972 58.0815 18.6841 57.2702 18.6841 56.2665C18.6841 55.2627 19.4972 54.4514 20.4991 54.4514H25.2673C32.3641 54.4514 32.8904 52.2933 33.3733 46.0514C33.9686 38.3701 36.5568 5.94067 36.5568 5.94067L40.176 6.22927C40.176 6.22927 37.5878 38.6532 36.9925 46.3309C36.4606 53.2099 35.3099 58.0815 25.2673 58.0815Z" fill="#2B5677"/>
<path d="M40.4647 5.59579C40.4647 8.68681 35.5096 11.1916 20.4992 11.1916C5.49058 11.1916 0.533691 8.68681 0.533691 5.59579C0.533691 2.50476 5.48877 0 20.4992 0C35.5096 0 40.4647 2.50476 40.4647 5.59579Z" fill="#55ACEE"/>
<path d="M39.616 5.67737C39.0588 4.84427 37.9335 4.6192 37.0985 5.17642C33.3124 7.70478 23.8959 8.02786 20.5871 7.94074C20.5689 7.93892 20.5526 7.94981 20.5344 7.948C20.5181 7.948 20.5054 7.94074 20.4891 7.94074C17.1875 8.02967 7.76921 7.71022 3.97758 5.17642C3.14266 4.62102 2.01733 4.84427 1.46011 5.67737C0.902894 6.51048 1.12796 7.63762 1.96106 8.19484C6.62573 11.3113 16.3308 11.5817 19.5452 11.5817C20.0698 11.5817 20.411 11.5745 20.5381 11.5708C20.6669 11.5745 21.0063 11.5817 21.5309 11.5817C24.7453 11.5817 34.4504 11.3131 39.1151 8.19484C39.95 7.63762 40.175 6.51048 39.616 5.67737Z" fill="#88C9F9"/>
<path d="M20.4827 29.9919C28.3287 29.9919 34.6891 28.8023 34.6891 27.3347C34.6891 25.8672 28.3287 24.6775 20.4827 24.6775C12.6368 24.6775 6.27637 25.8672 6.27637 27.3347C6.27637 28.8023 12.6368 29.9919 20.4827 29.9919Z" fill="#88C9F9"/>
<path d="M7.86987 55.4351H33.5836V58.762H7.86987V55.4351Z" fill="#2B5677"/>
</svg>
